Coordinates
version=1
nRows=17
nColumns=36
inDegrees=yes

Units are S.I. units (second, meters, Newtons, ...)
If the header above contains a line with 'inDegrees', this indicates whether rotational values are in degrees (yes) or radians (no).

endheader
time	pelvis_tilt	pelvis_list	pelvis_rotation	pelvis_tx	pelvis_ty	pelvis_tz	hip_flexion_r	hip_adduction_r	hip_rotation_r	knee_angle_r	knee_angle_r_beta	ankle_angle_r	subtalar_angle_r	mtp_angle_r	hip_flexion_l	hip_adduction_l	hip_rotation_l	knee_angle_l	knee_angle_l_beta	ankle_angle_l	subtalar_angle_l	mtp_angle_l	lumbar_extension	lumbar_bending	lumbar_rotation	arm_flex_r	arm_add_r	arm_rot_r	elbow_flex_r	pro_sup_r	arm_flex_l	arm_add_l	arm_rot_l	elbow_flex_l	pro_sup_l
      1.21250000	    -16.86488623	      2.34457473	      1.44905076	     -1.01518155	      1.21339280	     -0.07578716	     43.59599369	     -5.57825599	     -1.90680488	     52.27289398	      0.91233411	     19.00573526	    -22.25102438	     -7.49999987	     42.77649699	      2.91748478	     -0.74767980	     50.65330662	      0.88406698	     19.87968332	    -13.80506872	     -7.49999987	    -32.29252205	      4.65750977	     -1.46247238	    -20.35791221	     -8.55553067	    -26.09199273	     35.62962070	     72.94682080	     -4.29157007	    -14.35332940	     34.71578028	     11.39374150	     48.08774302
      1.21666670	    -16.87938072	      2.36973381	      1.33367491	     -1.01513465	      1.21032588	     -0.07528082	     44.09844821	     -5.62038004	     -1.88585471	     53.15449493	      0.92772095	     19.86279350	    -21.45848762	     -7.49999987	     43.30429485	      2.76247231	     -0.96633000	     51.58474515	      0.90032365	     20.19022313	    -13.79060002	     -7.49999987	    -32.91509595	      4.57116224	     -1.61911315	    -19.76686084	     -7.97301961	    -27.65545506	     36.54064682	     73.33231557	     -4.00821508	    -14.12748366	     33.73295145	     11.24550337	     48.07275818
      1.22083330	    -16.75519526	      2.39972400	      1.25589108	     -1.01458537	      1.20712578	     -0.07452234	     44.42244210	     -5.71649514	     -1.96009199	     54.09641540	      0.94416056	     20.68337387	    -20.92448389	     -7.49999987	     43.73460885	      2.62498969	     -1.20255299	     52.64713431	      0.91886584	     20.52552770	    -13.73413616	     -7.49999987	    -33.65254426	      4.53864841	     -1.85022086	    -18.99686910	     -7.18484676	    -30.29182731	     37.52460650	     77.81911225	     -3.89556431	    -13.74755408	     31.79851047	     11.52302431	     48.66720013
      1.22500000	    -16.58941098	      2.44606597	      1.20058082	     -1.01550499	      1.20473857	     -0.07382224	     44.69894612	     -5.80766222	     -2.02306037	     54.99172341	      0.95978663	     21.34325373	    -20.66578407	     -7.49999987	     44.07032688	      2.52258309	     -1.41871773	     53.60030208	      0.93550175	     20.95975950	    -13.53857785	     -7.49999987	    -34.48079284	      4.39990137	     -2.02170441	    -18.33518976	     -6.74157706	    -30.70764809	     38.32987458	     76.39069060	     -3.43373931	    -13.49369346	     31.38330896	     11.56627448	     49.46524373
      1.22916670	    -16.39513146	      2.46622292	      1.14780896	     -1.01427529	      1.20177332	     -0.07379231	     44.85626838	     -5.87247714	     -2.06977263	     55.80942095	      0.97405815	     22.13998140	    -20.28002357	     -7.49999987	     44.33880324	      2.39441413	     -1.58845463	     54.55008865	      0.95207865	     21.41729279	    -13.27524485	     -7.49999987	    -35.27413464	      4.24495411	     -2.29455136	    -17.58936360	     -6.36981875	    -31.11477986	     38.97031558	     75.92629865	     -3.11213080	    -13.29434067	     30.88706890	     11.66953898	     49.59023152
      1.23333330	    -16.49217508	      2.43188828	      1.05972836	     -1.01411445	      1.20079523	     -0.07396346	     45.31423680	     -5.84316805	     -2.06961628	     56.50412172	      0.98618297	     22.76944898	    -20.07299781	     -7.49999987	     44.92319113	      2.21538460	     -1.77856335	     55.46213702	      0.96799690	     21.76248452	    -13.26066211	     -7.49999987	    -35.74136751	      4.31684531	     -2.31700675	    -17.24222700	     -6.00060945	    -31.16066473	     40.58186324	     74.67656799	     -3.03545910	    -13.41760185	     30.64752803	     13.13579051	     50.37423298
      1.23750000	    -15.78131212	      2.34474984	      0.94519627	     -1.01377228	      1.20281793	     -0.07181692	     44.55183724	     -5.77948157	     -2.35044186	     56.68977113	      0.98942316	     23.28184516	    -19.53629651	     -7.49999987	     44.26873540	      1.91612577	     -1.97845667	     55.79866706	      0.97387046	     22.03319407	    -12.90242413	     -7.49999987	    -37.38494499	      4.12557902	     -2.22159475	    -15.36666373	     -5.29713349	    -33.33634373	     39.67270400	     75.71923387	     -1.61155999	    -12.40569683	     27.48232874	     11.22959946	     49.65945993
      1.24166670	    -15.49041030	      2.34254458	      0.76062199	     -1.01435266	      1.20120442	     -0.07127689	     44.52339097	     -5.65744549	     -2.33042885	     57.10292661	      0.99663408	     23.74764418	    -19.22910879	     -7.49999987	     44.23066559	      1.63099133	     -2.23048409	     56.36553343	      0.98376414	     22.29429342	    -12.64153520	     -7.49999987	    -38.57265795	      4.02357643	     -2.30557064	    -14.17762905	     -5.15218225	    -33.09070521	     39.72775481	     75.51354884	     -0.93506859	    -12.06018489	     26.62159777	     11.30823907	     50.04002116
      1.24583330	    -15.34247806	      2.38003862	      0.56339031	     -1.01251326	      1.19502425	     -0.07154234	     44.65405030	     -5.68965284	     -2.32664283	     57.70609121	      1.00716129	     24.31054962	    -18.94602006	     -7.49999987	     44.37344798	      1.40224165	     -2.52742069	     57.06595150	      0.99598874	     22.74726406	    -12.52631167	     -7.49999987	    -39.63469924	      3.95326914	     -2.40508498	    -13.19948724	     -5.06879078	    -32.81998562	     39.96948870	     75.10071909	     -0.42160721	    -11.71407876	     25.55483343	     11.46774390	     50.27844511
      1.25000000	    -15.17202040	      2.41423104	      0.43600289	     -1.01163847	      1.18895901	     -0.07227422	     44.95797575	     -5.82958635	     -2.35004624	     58.75626104	      1.02549021	     25.04238115	    -18.41800972	     -7.49999987	     44.68043626	      1.26943641	     -2.74024442	     58.09660068	      1.01397697	     23.36899819	    -12.35177464	     -7.49999987	    -40.49371952	      3.90855955	     -2.36587126	    -12.45373358	     -5.17461299	    -32.28163664	     40.09029283	     74.75570628	      0.05354086	    -11.28813266	     24.45225242	     11.43474553	     50.54041299
      1.25416670	    -15.21942796	      2.45058732	      0.36717168	     -1.01352383	      1.18839187	     -0.07192040	     45.50691990	     -5.93736730	     -2.29723425	     59.62888334	      1.04072034	     25.54622547	    -18.24261300	     -7.49999987	     45.27084316	      1.20383053	     -2.85187984	     59.02001559	      1.03009360	     23.77244792	    -12.33430256	     -7.49999987	    -41.38683859	      3.85077182	     -2.34590911	    -11.45347129	     -5.21854502	    -31.81247104	     40.15530428	     74.60936022	      0.77547244	    -11.06699172	     23.92511894	     11.65195831	     50.73093462
      1.25833330	    -15.39425514	      2.46871538	      0.32374402	     -1.01300887	      1.18031645	     -0.07076375	     46.38108660	     -6.06733903	     -2.23463198	     60.96686642	      1.06407255	     26.42502755	    -17.65680495	     -7.49999987	     46.28842824	      1.05798704	     -2.92421694	     60.54047051	      1.05663054	     24.44432906	    -12.02928295	     -7.49999987	    -41.91730572	      3.75500507	     -2.23160636	    -10.72003253	     -5.39125148	    -30.80929467	     39.95573962	     74.40485839	      1.43616869	    -10.93157028	     22.90198373	     11.95827460	     51.17900701
      1.26250000	    -15.62496083	      2.52320511	      0.33015365	     -1.01145019	      1.17633457	     -0.07051527	     47.15597561	     -6.20076062	     -2.11267476	     62.09417529	      1.08374781	     27.08628795	    -17.15257499	     -7.49999987	     47.26196028	      0.93053863	     -3.05927223	     61.91429187	      1.08060825	     24.78607395	    -12.00239609	     -7.49999987	    -42.44705528	      3.67561954	     -2.09050388	    -10.03345161	     -5.38113549	    -30.28375533	     39.97453644	     74.05615788	      2.13836562	    -10.87084870	     22.54090554	     12.14583691	     51.58862584
      1.26666670	    -15.94313609	      2.53128062	      0.38619223	     -1.00982214	      1.16998070	     -0.07095329	     48.07928598	     -6.36462419	     -2.13264247	     63.36760924	      1.10597342	     28.07555580	    -16.30098059	     -7.49999987	     48.33718504	      0.79622800	     -3.11794963	     63.33319297	      1.10537274	     25.36515800	    -11.89266822	     -7.49999987	    -42.62404458	      3.70941142	     -1.82499372	     -9.44408369	     -5.57223909	    -29.60371176	     39.41046179	     73.96065497	      2.64812863	    -10.88979623	     22.18646696	     12.53191111	     51.90611072
      1.27083330	    -16.34920481	      2.59157748	      0.43033030	     -1.01243044	      1.16475657	     -0.07056447	     49.21412664	     -6.51148098	     -2.08757768	     64.70299708	      1.12928033	     28.75233740	    -15.94795192	     -7.49999987	     49.55444202	      0.76483603	     -3.14269943	     64.71447760	      1.12948071	     25.90582695	    -11.84555933	     -7.49999987	    -42.88164575	      3.55397948	     -1.60851595	     -8.45750265	     -5.76924079	    -28.64676082	     38.65185801	     74.12778804	      3.54305346	    -10.69081737	     21.77905865	     12.65586367	     52.13524597
      1.27500000	    -16.76910391	      2.68661167	      0.36387446	     -1.01254895	      1.16088450	     -0.07126426	     50.42211923	     -6.69955183	     -2.01091120	     65.99928608	      1.15190485	     29.19961138	    -15.70343097	     -7.49999987	     50.68545789	      0.71571934	     -3.32025392	     65.93285740	      1.15074545	     26.24919276	    -12.10527906	     -7.49999987	    -43.09555617	      3.34901791	     -1.34294014	     -5.99938332	     -7.06279264	    -24.99773534	     35.35740194	     75.22176125	      4.44318198	    -10.35632474	     21.25150631	     12.65516306	     52.63676425
      1.27916670	    -17.01923212	      2.81042374	      0.37109438	     -1.00801064	      1.15545674	     -0.07129024	     51.23315414	     -6.97323445	     -2.00717822	     67.25440946	      1.17381088	     29.93461169	    -15.07860739	     -7.49999987	     51.43934101	      0.72543711	     -3.51514348	     67.15944054	      1.17215336	     26.63653402	    -12.55080558	     -7.49999987	    -43.34581219	      3.09196987	     -1.06393611	     -3.79749198	     -8.24232629	    -21.26241874	     32.23274655	     76.20843111	      5.47622823	     -9.91752431	     20.82708948	     12.71385401	     53.03101631
